HIERARCHY
ROOT Hips
{
	OFFSET 0.00000 0.00000 0.00000
	CHANNELS 6 Xposition Yposition Zposition Zrotation Yrotation Xrotation 
	JOINT LHipJoint
	{
		OFFSET 0 0 0
		CHANNELS 3 Zrotation Yrotation Xrotation
		JOINT LeftHip
		{
			OFFSET 1.84395 -1.68683 0.74144
			CHANNELS 3 Zrotation Yrotation Xrotation
			JOINT LeftKnee
			{
				OFFSET 2.27037 -6.23779 0.00000
				CHANNELS 3 Zrotation Yrotation Xrotation
				JOINT LeftAnkle
				{
					OFFSET 2.56918 -7.05877 0.00000
					CHANNELS 3 Zrotation Yrotation Xrotation
					JOINT LeftToe
					{
						OFFSET 0.22276 -0.61202 1.71784
						CHANNELS 3 Zrotation Yrotation Xrotation
						End Site
						{
							OFFSET 0.00000 -0.00000 0.91613
						}
					}
				}
			}
		}
	}
	JOINT RHipJoint
	{
		OFFSET 0 0 0
		CHANNELS 3 Zrotation Yrotation Xrotation
		JOINT RightHip
		{
			OFFSET -1.76833 -1.68684 0.74144
			CHANNELS 3 Zrotation Yrotation Xrotation
			JOINT RightKnee
			{
				OFFSET -2.49360 -6.85110 0.00000
				CHANNELS 3 Zrotation Yrotation Xrotation
				JOINT RightAnkle
				{
					OFFSET -2.55538 -7.02085 0.00000
					CHANNELS 3 Zrotation Yrotation Xrotation
					JOINT RightToe
					{
						OFFSET -0.21516 -0.59115 1.68050
						CHANNELS 3 Zrotation Yrotation Xrotation
						End Site
						{
							OFFSET -0.00000 -0.00000 0.89604
						}
					}
				}
			}
		}
	}
	JOINT lowerback
	{
		OFFSET 0 0 0
		CHANNELS 3 Zrotation Yrotation Xrotation
		JOINT Chest
		{
			OFFSET 0.06382 1.72312 -0.19613
			CHANNELS 3 Zrotation Yrotation Xrotation
			JOINT Chest2
			{
				OFFSET -0.00055 1.73507 0.23859
				CHANNELS 3 Zrotation Yrotation Xrotation
				JOINT lowerneck
				{
					OFFSET 0 0 0
					CHANNELS 3 Zrotation Yrotation Xrotation
					JOINT Neck
					{
						OFFSET 0.03638 1.65562 0.09633
						CHANNELS 3 Zrotation Yrotation Xrotation
						JOINT Head
						{
							OFFSET 0.06388 1.62807 -0.32386
							CHANNELS 3 Zrotation Yrotation Xrotation
							End Site
							{
								OFFSET 0.00995 1.67644 -0.12021
							}
						}
					}
				}
				JOINT LeftCollar
				{
					OFFSET 0 0 0
					CHANNELS 3 Zrotation Yrotation Xrotation
					JOINT LeftShoulder
					{
						OFFSET 3.09648 1.42991 0.28122
CHANNELS 3 Zrotation Xrotation Yrotation
						JOINT LeftElbow
						{
OFFSET 0 -5.118780 -0.000000
CHANNELS 3 Zrotation Xrotation Yrotation
							JOINT LeftWrist
							{
OFFSET 0 -3.599710 0.000000
CHANNELS 3 Zrotation Xrotation Yrotation
								JOINT lhand
								{
									OFFSET 0 0 0
CHANNELS 3 Zrotation Xrotation Yrotation
									JOINT LFingers
									{
OFFSET 0 -0.628770 0.000000
CHANNELS 3 Zrotation Xrotation Yrotation
										End Site
										{
OFFSET 0 -0.506930 0.000000
										}
									}
								}
								JOINT LThumb
								{
OFFSET 0 0.000000 0.000000
CHANNELS 3 Zrotation Xrotation Yrotation
									End Site
									{
OFFSET 0 -0.514670 0.514670
									}
								}
							}
						}
					}
				}
				JOINT RightCollar
				{
					OFFSET 0 0 0
					CHANNELS 3 Zrotation Yrotation Xrotation
					JOINT RightShoulder
					{
						OFFSET -3.33565 1.14597 0.05047
CHANNELS 3 Zrotation Xrotation Yrotation
						JOINT RightElbow
						{
OFFSET 0 -5.490200 0.000000
CHANNELS 3 Zrotation Xrotation Yrotation
							JOINT RightWrist
							{
OFFSET 0 -3.206590 -0.000000
CHANNELS 3 Zrotation Xrotation Yrotation
								JOINT rhand
								{
									OFFSET 0 0 0
CHANNELS 3 Zrotation Xrotation Yrotation
									JOINT RFingers
									{
OFFSET 0 -0.691880 0.000000
CHANNELS 3 Zrotation Xrotation Yrotation
										End Site
										{
OFFSET 0 -0.557810 0.000000
										}
									}
								}
								JOINT RThumb
								{
OFFSET 0 0.000000 0.000000
CHANNELS 3 Zrotation Xrotation Yrotation
									End Site
									{
OFFSET 0 -0.566330 0.566330
									}
								}
							}
						}
					}
				}
			}
		}
	}
}
MOTION
Frames: 8
Frame Time: 0.008333333333333333
-0.416200 17.502900 7.744400 -7.193400 -3.875200 7.516800 0.000000 0.000000 0.000000 -21.735800 -35.733100 23.759700 0.054700 -1.508700 -4.149600 -5.287900 40.241700 -35.592500 0.116400 2.199900 6.058600 0.000000 0.000000 0.000000 26.612400 23.002300 7.069000 -0.011300 -0.685100 1.882800 0.250900 -14.317300 -17.226100 -0.004300 0.421400 -1.157900 4.248000 0.562900 0.182800 1.958300 1.146000 -9.278400 -0.383900 0.305000 -9.899100 -11.649300 -12.358400 -0.360000 9.187700 -17.967500 17.166900 3.416000 -8.902900 7.207500 0.000000 0.000000 0.000000 -1.030300 14.444700 -22.290300 16.965000 -26.811700 4.071600 -1.431500 17.449400 9.719300 0.000000 0.000000 0.000000 -7.125000 0.000000 0.000000 -19.996200 20.466500 -12.515800 0.000000 0.000000 0.000000 -1.475500 13.377700 33.738900 -17.951500 -28.095000 -4.526400 7.795200 24.422500 32.356200 0.000000 0.000000 0.000000 7.125000 0.000000 -0.000000 43.064600 56.849100 -14.307800
-0.418869 17.503275 7.745207 -7.268964 -3.767970 7.456933 0.000000 0.000000 0.000000 -21.569144 -35.624369 23.715165 0.055907 -1.525372 -4.195535 -5.367989 40.273791 -35.182459 0.098550 2.023752 5.571252 0.000000 0.000000 0.000000 26.750519 22.974623 7.137628 -0.011300 -0.687076 1.888264 0.275485 -14.476149 -17.151150 -0.006081 0.503238 -1.382871 4.308810 0.548012 0.202798 2.000194 1.132045 -9.223198 -0.372562 0.296759 -9.850040 -11.951397 -12.400322 -0.619022 9.439729 -18.047596 17.317746 3.505429 -8.930575 7.363147 0.000000 0.000000 0.000000 -1.013106 14.949244 -29.195204 18.044243 -28.213286 4.570359 11.799025 0.186342 7.652023 0.000000 0.000000 0.000000 -7.125000 0.000000 0.000000 -10.917907 22.202976 -6.081747 0.000000 0.000000 0.000000 -1.572175 13.422038 35.815904 -18.696869 -29.039865 -4.883041 13.782981 21.765828 21.794038 0.000000 0.000000 0.000000 7.125000 0.000000 0.000000 39.883533 47.526174 -2.940131
-0.426091 17.506640 7.754068 -7.003729 -3.701515 7.626387 0.000000 0.000000 0.000000 -21.799572 -35.842977 23.567285 0.054887 -1.511654 -4.157790 -5.422880 40.372671 -35.146478 0.092244 1.958446 5.390804 0.000000 0.000000 0.000000 26.435489 23.179107 7.125036 -0.009737 -0.636531 1.749225 0.294902 -14.707097 -17.279666 -0.004062 0.412526 -1.133424 4.071347 0.644152 0.104815 1.800728 1.236376 -9.452956 -0.459528 0.352260 -10.043357 -12.206783 -12.493361 -0.607098 9.754285 -18.271984 17.695243 3.606060 -9.029290 7.566097 0.000000 0.000000 0.000000 -0.753251 15.082564 -30.864285 18.495369 -28.786604 4.785536 12.846177 -1.034574 8.380793 0.000000 0.000000 0.000000 -7.125000 0.000000 0.000000 -10.122088 21.437874 -5.811087 0.000000 0.000000 0.000000 -1.409146 13.545263 37.170361 -19.032208 -29.458462 -5.046746 14.011974 20.299137 22.230288 0.000000 0.000000 0.000000 7.125000 0.000000 0.000000 40.352577 47.842565 -3.355798
-0.432161 17.511529 7.763495 -6.712867 -3.586027 7.787959 0.000000 0.000000 0.000000 -22.052000 -36.063975 23.406831 0.053637 -1.494824 -4.111450 -5.488889 40.467170 -35.024256 0.082105 1.848020 5.085786 0.000000 0.000000 0.000000 26.089727 23.343603 7.120103 -0.008005 -0.576294 1.583594 0.320240 -14.969011 -17.384766 -0.002693 0.333623 -0.916673 3.817192 0.704757 -0.010088 1.602928 1.289986 -9.671783 -0.531462 0.385232 -10.217140 -12.442337 -12.620569 -0.768589 9.960979 -18.529738 18.252734 3.649881 -9.140141 7.853303 0.000000 0.000000 0.000000 -0.537065 15.096833 -32.060011 18.692965 -29.035397 4.880913 13.254291 -1.232173 8.885181 0.000000 0.000000 0.000000 -7.125000 0.000000 0.000000 -9.807194 20.911855 -5.744029 0.000000 0.000000 0.000000 -1.203522 13.644640 38.219847 -19.324768 -29.820186 -5.191424 14.311711 19.102060 22.826393 0.000000 0.000000 0.000000 7.125000 0.000000 0.000000 40.989926 48.273700 -3.936697
-0.436729 17.515528 7.770830 -6.538234 -3.472115 7.897081 0.000000 0.000000 0.000000 -22.183479 -36.218421 23.294751 0.053025 -1.485702 -4.086380 -5.529779 40.517118 -34.919793 0.074268 1.758291 4.838194 0.000000 0.000000 0.000000 25.893177 23.456648 7.133657 -0.006824 -0.532728 1.463864 0.340515 -15.177633 -17.471723 -0.001624 0.261984 -0.719820 3.671376 0.729248 -0.093324 1.480987 1.306293 -9.826940 -0.580451 0.396195 -10.340897 -12.345792 -12.678969 -0.929902 9.767146 -18.608944 18.649101 3.546371 -9.174156 7.994605 0.000000 0.000000 0.000000 -0.464877 14.905531 -32.888339 18.612543 -28.934289 4.842002 13.642874 -0.682350 8.967227 0.000000 0.000000 0.000000 -7.125000 0.000000 0.000000 -9.526147 20.811369 -5.596573 0.000000 0.000000 0.000000 -0.992628 13.606929 38.855574 -19.487447 -30.019869 -5.272474 14.581304 18.476263 23.011497 0.000000 0.000000 0.000000 7.125000 0.000000 0.000000 41.333424 48.379950 -4.108537
-0.439265 17.516787 7.773946 -6.563605 -3.393389 7.921426 0.000000 0.000000 0.000000 -22.100557 -36.240093 23.251227 0.053433 -1.491710 -4.102920 -5.547056 40.518780 -34.810781 0.069515 1.700471 4.678468 0.000000 0.000000 0.000000 25.950445 23.505976 7.165505 -0.006607 -0.525426 1.443892 0.349039 -15.275624 -17.529415 -0.000980 0.202908 -0.557591 3.701812 0.720927 -0.118647 1.486384 1.297467 -9.870963 -0.590387 0.388685 -10.376059 -12.353085 -12.653739 -1.053429 9.739852 -18.573460 18.814156 3.531711 -9.152767 8.065140 0.000000 0.000000 0.000000 -0.593340 14.470914 -33.236559 18.262640 -28.492009 4.673852 14.160551 0.529842 9.364536 0.000000 0.000000 0.000000 -7.125000 0.000000 0.000000 -9.142880 20.383716 -5.454746 0.000000 0.000000 0.000000 -0.842565 13.375256 39.161525 -19.523133 -30.063614 -5.290413 14.636564 18.400091 22.937560 0.000000 0.000000 0.000000 7.125000 0.000000 0.000000 41.328135 48.312925 -4.028199
-0.440990 17.516337 7.775127 -6.656140 -3.364236 7.932601 0.000000 0.000000 0.000000 -21.957860 -36.229378 23.233341 0.054163 -1.501464 -4.129801 -5.563435 40.531496 -34.743871 0.067773 1.679553 4.620852 0.000000 0.000000 0.000000 26.077166 23.540194 7.171651 -0.006876 -0.535632 1.471979 0.348458 -15.292937 -17.568231 -0.000524 0.143832 -0.395169 3.786540 0.720249 -0.133704 1.529036 1.304464 -9.879798 -0.592395 0.387005 -10.377251 -12.380901 -12.616813 -1.162574 9.763868 -18.524437 18.913142 3.540413 -9.123767 8.116619 0.000000 0.000000 0.000000 -0.802409 13.942501 -33.182774 17.697629 -27.767974 4.407616 14.622371 2.392712 9.950315 0.000000 0.000000 0.000000 -7.125000 0.000000 0.000000 -8.798287 19.763657 -5.367875 0.000000 0.000000 0.000000 -0.693283 13.062147 39.120701 -19.408320 -29.922884 -5.233004 14.559980 18.724230 22.784067 0.000000 0.000000 0.000000 7.125000 0.000000 0.000000 41.162681 48.202769 -3.875443
-0.442384 17.515385 7.776453 -6.699357 -3.384407 7.985236 0.000000 0.000000 0.000000 -21.890230 -36.267298 23.207577 0.054438 -1.505406 -4.140641 -5.584028 40.581857 -34.775774 0.068491 1.688547 4.645729 0.000000 0.000000 0.000000 26.103078 23.553913 7.090862 -0.007238 -0.550628 1.513024 0.341206 -15.239757 -17.573990 -0.000400 0.127428 -0.350131 3.823691 0.742566 -0.181664 1.542259 1.336136 -9.905550 -0.600838 0.399766 -10.376493 -12.385493 -12.591221 -1.193194 9.813058 -18.500778 18.960207 3.557173 -9.107446 8.140004 0.000000 0.000000 0.000000 -0.995490 13.440202 -32.818456 16.999992 -26.857125 4.087728 14.790930 4.780172 10.358623 0.000000 0.000000 0.000000 -7.125000 0.000000 0.000000 -8.669674 19.338015 -5.371104 0.000000 0.000000 0.000000 -0.495093 12.762108 38.698271 -19.158906 -29.615489 -5.109140 14.571410 19.279059 22.731866 0.000000 0.000000 0.000000 7.125000 0.000000 0.000000 41.136813 48.159612 -3.821006
